2015007_C4_04_grf
version=1
nRows=37
nColumns=19
inDegrees=no
endheader
time	ground_force_1_vx	ground_force_1_vy	ground_force_1_vz	ground_force_1_px	ground_force_1_py	ground_force_1_pz	ground_force_1_mx	ground_force_1_my	ground_force_1_mz	ground_force_2_vx	ground_force_2_vy	ground_force_2_vz	ground_force_2_px	ground_force_2_py	ground_force_2_pz	ground_force_2_mx	ground_force_2_my	ground_force_2_mz
      0.81000000	      0.00000000	      0.00000000	      0.00000000	      0.00000000	      0.00000000	      0.00000000	      0.00000000	      0.00000000	      0.00000000	    -21.52197063	    488.42552304	     24.50040579	      0.79848396	      0.00000000	     -0.30731464	      0.00000000	      0.23364847	      0.00000000
      0.81100000	      0.00000000	      0.00000000	      0.00000000	      0.00000000	      0.00000000	      0.00000000	      0.00000000	      0.00000000	      0.00000000	    -21.27782907	    487.00231686	     24.43163171	      0.79893681	      0.00000000	     -0.30749939	      0.00000000	      0.22407981	      0.00000000
      0.81200000	      0.00000000	      0.00000000	      0.00000000	      0.00000000	      0.00000000	      0.00000000	      0.00000000	      0.00000000	      0.00000000	    -21.03646845	    485.61348021	     24.36119914	      0.79938830	      0.00000000	     -0.30768260	      0.00000000	      0.21460386	      0.00000000
      0.81300000	      0.00000000	      0.00000000	      0.00000000	      0.00000000	      0.00000000	      0.00000000	      0.00000000	      0.00000000	      0.00000000	    -20.79854626	    484.26733166	     24.28886667	      0.79983801	      0.00000000	     -0.30786394	      0.00000000	      0.20524194	      0.00000000
      0.81400000	      0.00000000	      0.00000000	      0.00000000	      0.00000000	      0.00000000	      0.00000000	      0.00000000	      0.00000000	      0.00000000	    -20.56333981	    482.95518756	     24.21514839	      0.80028625	      0.00000000	     -0.30804378	      0.00000000	      0.19596979	      0.00000000
      0.81500000	      0.00000000	      0.00000000	      0.00000000	      0.00000000	      0.00000000	      0.00000000	      0.00000000	      0.00000000	      0.00000000	    -20.33146471	    481.68523610	     24.13986996	      0.80073259	      0.00000000	     -0.30822180	      0.00000000	      0.18681026	      0.00000000
      0.81600000	      0.00000000	      0.00000000	      0.00000000	      0.00000000	      0.00000000	      0.00000000	      0.00000000	      0.00000000	      0.00000000	    -20.10219172	    480.44892401	     24.06347618	      0.80117735	      0.00000000	     -0.30839834	      0.00000000	      0.17774332	      0.00000000
      0.81700000	      0.00000000	      0.00000000	      0.00000000	      0.00000000	      0.00000000	      0.00000000	      0.00000000	      0.00000000	      0.00000000	    -19.87608615	    479.25425693	     23.98585193	      0.80162009	      0.00000000	     -0.30857307	      0.00000000	      0.16879626	      0.00000000
      0.81800000	      0.00000000	      0.00000000	      0.00000000	      0.00000000	      0.00000000	      0.00000000	      0.00000000	      0.00000000	      0.00000000	    -19.65244487	    478.09275985	     23.90737161	      0.80206114	      0.00000000	     -0.30874636	      0.00000000	      0.15994895	      0.00000000
      0.81900000	      0.00000000	      0.00000000	      0.00000000	      0.00000000	      0.00000000	      0.00000000	      0.00000000	      0.00000000	      0.00000000	    -19.43179034	    476.97249055	     23.82798046	      0.80250002	      0.00000000	     -0.30891784	      0.00000000	      0.15123168	      0.00000000
      0.82000000	      0.00000000	      0.00000000	      0.00000000	      0.00000000	      0.00000000	      0.00000000	      0.00000000	      0.00000000	      0.00000000	    -19.21345480	    475.88492185	     23.74797910	      0.80293713	      0.00000000	     -0.30908789	      0.00000000	      0.14262143	      0.00000000
      0.82100000	      0.00000000	      0.00000000	      0.00000000	      0.00000000	      0.00000000	      0.00000000	      0.00000000	      0.00000000	      0.00000000	    -18.99793278	    474.83790293	     23.66735525	      0.80337195	      0.00000000	     -0.30925619	      0.00000000	      0.13414650	      0.00000000
      0.82200000	      0.00000000	      0.00000000	      0.00000000	      0.00000000	      0.00000000	      0.00000000	      0.00000000	      0.00000000	      0.00000000	    -18.78458820	    473.82301092	     23.58633578	      0.80380490	      0.00000000	     -0.30942308	      0.00000000	      0.12578032	      0.00000000
      0.82300000	      0.00000000	      0.00000000	      0.00000000	      0.00000000	      0.00000000	      0.00000000	      0.00000000	      0.00000000	      0.00000000	    -18.57386995	    472.84783423	     23.50494191	      0.80423546	      0.00000000	     -0.30958824	      0.00000000	      0.11755087	      0.00000000
      0.82400000	      0.00000000	      0.00000000	      0.00000000	      0.00000000	      0.00000000	      0.00000000	      0.00000000	      0.00000000	      0.00000000	    -18.36517081	    471.90410644	     23.42333794	      0.80466403	      0.00000000	     -0.30975202	      0.00000000	      0.10943214	      0.00000000
      0.82500000	      0.00000000	      0.00000000	      0.00000000	      0.00000000	      0.00000000	      0.00000000	      0.00000000	      0.00000000	      0.00000000	    -18.15889589	    470.99907696	     23.34158979	      0.80509007	      0.00000000	     -0.30991411	      0.00000000	      0.10145391	      0.00000000
      0.82600000	      0.00000000	      0.00000000	      0.00000000	      0.00000000	      0.00000000	      0.00000000	      0.00000000	      0.00000000	      0.00000000	    -17.95447618	    470.12460977	     23.25981259	      0.80551406	      0.00000000	     -0.31007485	      0.00000000	      0.09358998	      0.00000000
      0.82700000	      0.00000000	      0.00000000	      0.00000000	      0.00000000	      0.00000000	      0.00000000	      0.00000000	      0.00000000	      0.00000000	    -17.75226556	    469.28771958	     23.17811027	      0.80593544	      0.00000000	     -0.31023395	      0.00000000	      0.08587091	      0.00000000
      0.82800000	      0.00000000	      0.00000000	      0.00000000	      0.00000000	      0.00000000	      0.00000000	      0.00000000	      0.00000000	      0.00000000	    -17.55173318	    468.48040074	     23.09655100	      0.80635468	      0.00000000	     -0.31039176	      0.00000000	      0.07826775	      0.00000000
      0.82900000	      0.00000000	      0.00000000	      0.00000000	      0.00000000	      0.00000000	      0.00000000	      0.00000000	      0.00000000	      0.00000000	    -17.35317800	    467.70943329	     23.01527224	      0.80677122	      0.00000000	     -0.31054802	      0.00000000	      0.07080757	      0.00000000
      0.83000000	      0.00000000	      0.00000000	      0.00000000	      0.00000000	      0.00000000	      0.00000000	      0.00000000	      0.00000000	      0.00000000	    -17.15610921	    466.96704626	     22.93429747	      0.80718556	      0.00000000	     -0.31070305	      0.00000000	      0.06345787	      0.00000000
      0.83100000	      0.00000000	      0.00000000	      0.00000000	      0.00000000	      0.00000000	      0.00000000	      0.00000000	      0.00000000	      0.00000000	    -16.96077734	    466.25981107	     22.85378762	      0.80759710	      0.00000000	     -0.31085658	      0.00000000	      0.05623974	      0.00000000
      0.83200000	      0.00000000	      0.00000000	      0.00000000	      0.00000000	      0.00000000	      0.00000000	      0.00000000	      0.00000000	      0.00000000	    -16.76672697	    465.58021754	     22.77371138	      0.80800636	      0.00000000	     -0.31100895	      0.00000000	      0.04912206	      0.00000000
      0.83300000	      0.00000000	      0.00000000	      0.00000000	      0.00000000	      0.00000000	      0.00000000	      0.00000000	      0.00000000	      0.00000000	    -16.57413319	    464.93462846	     22.69425988	      0.80841272	      0.00000000	     -0.31115987	      0.00000000	      0.04212491	      0.00000000
      0.83400000	      0.00000000	      0.00000000	      0.00000000	      0.00000000	      0.00000000	      0.00000000	      0.00000000	      0.00000000	      0.00000000	    -16.38258435	    464.31569010	     22.61536270	      0.80881672	      0.00000000	     -0.31130966	      0.00000000	      0.03522050	      0.00000000
      0.83500000	      0.00000000	      0.00000000	      0.00000000	      0.00000000	      0.00000000	      0.00000000	      0.00000000	      0.00000000	      0.00000000	    -16.19218569	    463.72966096	     22.53721878	      0.80921774	      0.00000000	     -0.31145803	      0.00000000	      0.02842810	      0.00000000
      0.83600000	      0.00000000	      0.00000000	      0.00000000	      0.00000000	      0.00000000	      0.00000000	      0.00000000	      0.00000000	      0.00000000	    -16.00258984	    463.16950023	     22.45971411	      0.80961632	      0.00000000	     -0.31160529	      0.00000000	      0.02172096	      0.00000000
      0.83700000	      0.00000000	      0.00000000	      0.00000000	      0.00000000	      0.00000000	      0.00000000	      0.00000000	      0.00000000	      0.00000000	    -15.81384800	    462.64125779	     22.38305546	      0.81001183	      0.00000000	     -0.31175114	      0.00000000	      0.01511553	      0.00000000
      0.83800000	      0.00000000	      0.00000000	      0.00000000	      0.00000000	      0.00000000	      0.00000000	      0.00000000	      0.00000000	      0.00000000	    -15.62566869	    462.13820577	     22.30711430	      0.81040482	      0.00000000	     -0.31189585	      0.00000000	      0.00858849	      0.00000000
      0.83900000	      0.00000000	      0.00000000	      0.00000000	      0.00000000	      0.00000000	      0.00000000	      0.00000000	      0.00000000	      0.00000000	    -15.43805283	    461.66621149	     22.23212086	      0.81079463	      0.00000000	     -0.31203915	      0.00000000	      0.00215570	      0.00000000
      0.84000000	      0.00000000	      0.00000000	      0.00000000	      0.00000000	      0.00000000	      0.00000000	      0.00000000	      0.00000000	      0.00000000	    -15.25077224	    461.21883392	     22.15792313	      0.81118183	      0.00000000	     -0.31218128	      0.00000000	     -0.00420425	      0.00000000
      0.84100000	      0.00000000	      0.00000000	      0.00000000	      0.00000000	      0.00000000	      0.00000000	      0.00000000	      0.00000000	      0.00000000	    -15.06376639	    460.80173180	     22.08476365	      0.81156572	      0.00000000	     -0.31232196	      0.00000000	     -0.01047668	      0.00000000
      0.84200000	      0.00000000	      0.00000000	      0.00000000	      0.00000000	      0.00000000	      0.00000000	      0.00000000	      0.00000000	      0.00000000	    -14.87686206	    460.40862054	     22.01246917	      0.81194689	      0.00000000	     -0.31246145	      0.00000000	     -0.01668189	      0.00000000
      0.84300000	      0.00000000	      0.00000000	      0.00000000	      0.00000000	      0.00000000	      0.00000000	      0.00000000	      0.00000000	      0.00000000	    -14.68993211	    460.04518494	     21.94129564	      0.81232460	      0.00000000	     -0.31259941	      0.00000000	     -0.02280568	      0.00000000
      0.84400000	      0.00000000	      0.00000000	      0.00000000	      0.00000000	      0.00000000	      0.00000000	      0.00000000	      0.00000000	      0.00000000	    -14.50286433	    459.70521867	     21.87105194	      0.81269951	      0.00000000	     -0.31273613	      0.00000000	     -0.02886564	      0.00000000
      0.84500000	      0.00000000	      0.00000000	      0.00000000	      0.00000000	      0.00000000	      0.00000000	      0.00000000	      0.00000000	      0.00000000	    -14.31548595	    459.39432830	     21.80200852	      0.81307087	      0.00000000	     -0.31287126	      0.00000000	     -0.03484753	      0.00000000
      0.84600000	      0.00000000	      0.00000000	      0.00000000	      0.00000000	      0.00000000	      0.00000000	      0.00000000	      0.00000000	      0.00000000	    -14.12776019	    459.10649002	     21.73395753	      0.81343936	      0.00000000	     -0.31300512	      0.00000000	     -0.04076917	      0.00000000
